<svg xmlns="http://www.w3.org/2000/svg" xmlns:svg="http://www.w3.org/2000/svg" id="svg8" width="100" height="100" version="1.1" viewBox="0 0 26.458 26.458"><metadata id="metadata5"/><g id="g3634" transform="matrix(1.0763731,0,0,1.0763731,3.203243,14.873183)"><path id="path3632" d="m -6,-7 v -1 l 1,-2 1,-1 3,-1 h 3 l 3,1 1,1 1,2 v 2 l -1,2 -1,1 -2,1 -3,1 m -6,-6 h 1 v -1 l 1,-2 3,-1 h 3 l 3,1 1,2 v 2 l -1,2 -2,1 -3,1 m -5,-7 3,-2 m 5,0 3,2 m 0,4 -4,3 M 0,-2 V 2 H 1 V -2 M 0,6 -1,7 V 8 L 0,9 H 1 L 2,8 V 7 L 1,6 H 0 M 0,7 V 8 H 1 V 7 H 0" transform="translate(9)" style="fill:none;stroke:#000"/></g></svg>