<svg xmlns="http://www.w3.org/2000/svg" xmlns:svg="http://www.w3.org/2000/svg" id="svg8" width="300" height="100" version="1.1" viewBox="0 0 79.375 26.458"><metadata id="metadata5"/><g id="g941" transform="matrix(0.33984062,0,0,0.33984062,1.0001475,13.061756)"><path id="path917" d="M 8,-7 7,-9 5,-11 3,-12 h -4 l -2,1 -2,2 -1,2 -1,3 v 5 l 1,3 1,2 2,2 2,1 H 3 L 5,8 7,6 8,4 M 8,-7 H 7 L 6,-9 5,-10 3,-11 h -4 l -2,1 -2,3 -1,3 v 5 l 1,3 2,3 2,1 H 3 L 5,7 6,6 7,4 h 1" transform="translate(10)" style="fill:none;stroke:#000"/><path id="path919" d="M -6,-12 V 9 h 1 m -1,-21 h 1 V 9 m 0,-10 3,-3 2,-1 h 3 l 2,1 1,3 V 9 M -5,-1 -2,-3 0,-4 h 2 l 2,1 1,2 V 9 h 1" transform="translate(31)" style="fill:none;stroke:#000"/><path id="path921" d="m -1,-5 -2,1 -2,2 -1,3 v 2 l 1,3 2,2 2,1 H 2 L 4,8 6,6 7,3 V 1 L 6,-2 4,-4 2,-5 h -3 m 0,1 -2,1 -1,1 -1,3 v 2 l 1,3 1,1 2,1 H 2 L 4,7 5,6 6,3 V 1 L 5,-2 4,-3 2,-4 h -3" transform="translate(50)" style="fill:none;stroke:#000"/><path id="path923" d="m -1,-5 -2,1 -2,2 -1,3 v 2 l 1,3 2,2 2,1 H 2 L 4,8 6,6 7,3 V 1 L 6,-2 4,-4 2,-5 h -3 m 0,1 -2,1 -1,1 -1,3 v 2 l 1,3 1,1 2,1 H 2 L 4,7 5,6 6,3 V 1 L 5,-2 4,-3 2,-4 h -3" transform="translate(69)" style="fill:none;stroke:#000"/><path id="path925" d="M 6,-2 5,-4 2,-5 h -3 l -3,1 -1,2 1,2 2,1 5,2 2,1 M 4,3 5,5 V 6 L 4,8 M 5,7 2,8 H -1 L -4,7 M -3,8 -4,6 H -5 M 6,-2 H 5 L 4,-4 m 1,1 -3,-1 h -3 l -3,1 m 1,-1 -1,2 1,2 m -1,-1 2,1 5,2 2,1 1,2 V 6 L 5,8 2,9 H -1 L -4,8 -5,6" transform="translate(87)" style="fill:none;stroke:#000"/><path id="path927" d="M -5,2 H 6 V -1 L 5,-3 4,-4 2,-5 h -3 l -2,1 -2,2 -1,3 v 2 l 1,3 2,2 2,1 H 2 L 4,8 6,6 M -5,1 H 5 V -1 L 4,-3 2,-4 h -3 l -2,1 -1,1 -1,3 v 2 l 1,3 1,1 2,1 H 2 L 4,7 5,5 6,6" transform="translate(105)" style="fill:none;stroke:#000"/><path id="path929" transform="translate(122)" style="fill:none;stroke:#000"/><path id="path931" d="M 0,-12 V 9 H 1 M 0,-12 H 1 V 9" transform="translate(134)" style="fill:none;stroke:#000"/><path id="path933" d="M -11,-5 V 9 h 1 m -1,-14 h 1 V 9 m 0,-10 3,-3 2,-1 h 3 l 2,1 1,3 V 9 m -11,-10 3,-2 2,-1 h 2 l 2,1 1,2 V 9 H 1 M 1,-1 4,-4 6,-5 h 3 l 2,1 1,3 V 9 M 1,-1 4,-3 6,-4 h 2 l 2,1 1,2 V 9 h 1" transform="translate(154)" style="fill:none;stroke:#000"/><path id="path935" d="M 5,-5 V 9 H 6 M 5,-5 H 6 V 9 M 5,-2 3,-4 1,-5 h -3 l -2,1 -2,2 -1,3 v 2 l 1,3 2,2 2,1 H 1 L 3,8 5,6 M 5,-2 1,-4 h -3 l -2,1 -1,1 -1,3 v 2 l 1,3 1,1 2,1 H 1 L 5,6" transform="translate(180)" style="fill:none;stroke:#000"/><path id="path937" d="M 6,-5 H 5 V 10 L 4,13 3,14 1,15 H -1 L -3,14 -4,13 H -6 M 6,-5 V 10 L 5,13 3,15 1,16 H -2 L -4,15 -6,13 M 5,-2 3,-4 1,-5 h -3 l -2,1 -2,2 -1,3 v 2 l 1,3 2,2 2,1 H 1 L 3,8 5,6 M 5,-2 1,-4 h -3 l -2,1 -1,1 -1,3 v 2 l 1,3 1,1 2,1 H 1 L 5,6" transform="translate(200)" style="fill:none;stroke:#000"/><path id="path939" d="M -5,2 H 6 V -1 L 5,-3 4,-4 2,-5 h -3 l -2,1 -2,2 -1,3 v 2 l 1,3 2,2 2,1 H 2 L 4,8 6,6 M -5,1 H 5 V -1 L 4,-3 2,-4 h -3 l -2,1 -1,1 -1,3 v 2 l 1,3 1,1 2,1 H 2 L 4,7 5,5 6,6" transform="translate(219)" style="fill:none;stroke:#000"/></g></svg>