<?xml version="1.0" encoding="UTF-8" standalone="no"?>
<!-- Created with Inkscape (http://www.inkscape.org/) -->

<svg
   xmlns:dc="http://purl.org/dc/elements/1.1/"
   xmlns:cc="http://creativecommons.org/ns#"
   xmlns:rdf="http://www.w3.org/1999/02/22-rdf-syntax-ns#"
   xmlns:svg="http://www.w3.org/2000/svg"
   xmlns="http://www.w3.org/2000/svg"
   xmlns:sodipodi="http://sodipodi.sourceforge.net/DTD/sodipodi-0.dtd"
   xmlns:inkscape="http://www.inkscape.org/namespaces/inkscape"
   width="100"
   height="100"
   viewBox="0 0 26.458333 26.458333"
   version="1.1"
   id="svg8"
   inkscape:version="0.92.3 (2405546, 2018-03-11)"
   sodipodi:docname="about.svg">
  <sodipodi:namedview
     id="base"
     pagecolor="#ffffff"
     bordercolor="#666666"
     borderopacity="1.0"
     inkscape:pageopacity="0.0"
     inkscape:pageshadow="2"
     inkscape:zoom="2.8"
     inkscape:cx="59.277201"
     inkscape:cy="61.781524"
     inkscape:document-units="mm"
     inkscape:current-layer="svg8"
     showgrid="false"
     inkscape:window-width="1920"
     inkscape:window-height="1016"
     inkscape:window-x="0"
     inkscape:window-y="27"
     inkscape:window-maximized="1"
     units="px" />
  <defs
     id="defs2" />
  <metadata
     id="metadata5">
    <rdf:RDF>
      <cc:Work
         rdf:about="">
        <dc:format>image/svg+xml</dc:format>
        <dc:type
           rdf:resource="http://purl.org/dc/dcmitype/StillImage" />
        <dc:title />
      </cc:Work>
    </rdf:RDF>
  </metadata>
  <g
     inkscape:groupmode="layer"
     id="layer2"
     inkscape:label="Layer 2"
     transform="translate(-8.848344,-82.765871)" />
  <g
     style="fill:#af5e5e;fill-opacity:1"
     transform="matrix(2.3634265,0,0,2.3634265,13.401907,13.411407)"
     inkscape:label="Gear10"
     id="g2806" />
  <g
     id="g3634"
     transform="matrix(1.0763731,0,0,1.0763731,3.203243,14.873183)"
     inkscape:label="Hershey Text">
    <path
       id="path3632"
       transform="translate(9)"
       style="fill:none;stroke:#000000"
       d="m -6,-7 v -1 l 1,-2 1,-1 3,-1 h 3 l 3,1 1,1 1,2 v 2 l -1,2 -1,1 -2,1 -3,1 m -6,-6 h 1 v -1 l 1,-2 3,-1 h 3 l 3,1 1,2 v 2 l -1,2 -2,1 -3,1 m -5,-7 3,-2 m 5,0 3,2 m 0,4 -4,3 M 0,-2 V 2 H 1 V -2 M 0,6 -1,7 V 8 L 0,9 H 1 L 2,8 V 7 L 1,6 H 0 M 0,7 V 8 H 1 V 7 H 0"
       inkscape:connector-curvature="0" />
  </g>
</svg>
